<svg width="73" height="62" viewBox="0 0 73 62" fill="none" xmlns="http://www.w3.org/2000/svg">
<path d="M20.2778 8.95557H56.7778V11.625H20.2778V8.95557Z" fill="#6D4BA4"/>
<path d="M58.8055 13.7778H19.9939C19.4764 13.7715 18.9658 13.6763 18.4928 13.498C18.0198 13.3196 17.5942 13.0617 17.2418 12.7398C16.8893 12.4179 16.6173 12.0387 16.4421 11.6252C16.2668 11.2116 16.192 10.7721 16.2222 10.3333C16.2197 9.46007 16.6078 8.61861 17.308 7.97916C18.0082 7.3397 18.9682 6.95 19.9939 6.88887H58.8055C59.3433 6.88887 59.8591 6.70742 60.2394 6.38444C60.6197 6.06147 60.8333 5.62341 60.8333 5.16665C60.8333 4.70989 60.6197 4.27183 60.2394 3.94885C59.8591 3.62588 59.3433 3.44443 58.8055 3.44443H19.9939C17.8923 3.50694 15.9014 4.26023 14.4411 5.54544C12.9809 6.83064 12.1654 8.54729 12.1667 10.3333C12.147 10.6144 12.147 10.8962 12.1667 11.1772C12.1471 11.3145 12.1471 11.4533 12.1667 11.5905V51.6666C12.1654 53.4527 12.9809 55.1693 14.4411 56.4545C15.9014 57.7397 17.8923 58.493 19.9939 58.5555H58.8055C59.3433 58.5555 59.8591 58.3741 60.2394 58.0511C60.6197 57.7281 60.8333 57.2901 60.8333 56.8333V15.6205C60.8345 15.152 60.6255 14.7007 60.2488 14.3583C59.8721 14.016 59.356 13.8084 58.8055 13.7778V13.7778ZM56.7778 55.1111H19.9939C18.9682 55.05 18.0082 54.6603 17.308 54.0208C16.6078 53.3814 16.2197 52.5399 16.2222 51.6666V16.4472C17.3752 16.9874 18.6777 17.255 19.9939 17.2222H56.7778V55.1111Z" fill="#6D4BA4"/>
<path d="M35.4799 23.2059L34.6584 23.9004C32.4568 22.8586 29.8279 22.6503 27.4783 23.3031L27.3469 23.2059C25.7531 21.8446 23.1407 21.8446 21.5469 23.2059C19.9532 24.5671 19.9368 26.7618 21.5469 28.1091L21.662 28.2203C20.8897 30.2066 21.1362 32.429 22.3685 34.2903L21.5469 34.9848C21.3164 35.1773 21.1334 35.4066 21.0085 35.6594C20.8836 35.9121 20.8193 36.1833 20.8193 36.4572C20.8193 36.7311 20.8836 37.0023 21.0085 37.2551C21.1334 37.5078 21.3164 37.7371 21.5469 37.9296L23.8636 39.902C24.833 40.7076 26.3775 40.7076 27.3469 39.902L27.922 39.4019L39.5547 49.2224C40.5077 50.0419 42.0686 50.0419 43.0379 49.2224L52.3211 41.3744C53.2905 40.5548 53.2905 39.2353 52.3211 38.4157L40.7048 28.5953L41.2963 28.1091C42.2493 27.2896 42.2493 25.9839 41.2963 25.1644L38.9632 23.192C38.4989 22.8036 37.8713 22.587 37.2182 22.5896C36.5651 22.5922 35.9399 22.8138 35.4799 23.2059V23.2059ZM23.9294 29.1092C24.0608 28.637 24.2908 28.1786 24.603 27.748L23.2886 26.6368C23.1122 26.496 22.982 26.3189 22.9107 26.1228C22.6971 25.6506 22.8121 25.0672 23.2886 24.6782C23.7651 24.2893 24.4387 24.1782 24.9973 24.3588C25.2274 24.4143 25.4245 24.5254 25.6053 24.6782L26.9197 25.7895C27.429 25.5255 27.9712 25.3311 28.5299 25.22C29.9429 24.8727 31.4545 24.956 32.8018 25.4561L24.2087 32.7207C23.6172 31.5817 23.5186 30.3038 23.9294 29.1092V29.1092ZM50.5795 39.902L41.2963 47.75L29.68 37.9296L38.9632 30.0816L50.5795 39.902V39.902ZM39.5547 26.6368L25.6053 38.4296L23.2886 36.4572L37.2216 24.6782L39.5547 26.6368ZM41.2963 35.471L36.055 39.902L34.3134 38.4296L39.5547 33.9986L41.2963 35.471ZM44.7796 38.4296L39.5547 42.8467L37.7966 41.3744L43.0379 36.9434L44.7796 38.4296Z" fill="#6D4BA4"/>
</svg>
